<?xml version="1.0" encoding="UTF-8"?>
<svg width="1024px" height="1024px" viewBox="0 0 1024 1024" version="1.1" xmlns="http://www.w3.org/2000/svg" xmlns:xlink="http://www.w3.org/1999/xlink">
    <!-- Generator: Sketch 49.3 (51167) - http://www.bohemiancoding.com/sketch -->
    <title>Searchit Mask</title>
    <desc>Created with Sketch.</desc>
    <defs></defs>
    <g id="Searchit-Mask" stroke="none" stroke-width="1" fill="none" fill-rule="evenodd">
        <path d="M379.97948,662.687843 C379.983007,662.629668 379.98477,662.573256 379.988297,662.513318 C383.887052,662.703709 387.81402,662.664926 391.675745,663.151482 C394.648744,663.525213 396.609583,662.54505 398.610979,660.44898 C404.112614,654.694925 409.829377,649.143602 415.4615,643.514712 C460.624281,598.361952 505.774719,553.191563 551.004507,508.10403 C553.192818,505.921579 553.700661,504.780993 551.191422,502.355264 C541.092747,492.583596 531.226834,482.572175 521.330945,472.592486 C519.770385,471.019993 518.835812,469.944633 516.619288,472.165868 C465.342991,523.573341 413.98029,574.896197 362.619353,626.219052 C361.358562,627.475989 360.543896,628.683565 360.644407,630.65447 C361.11522,639.851438 361.499629,649.05722 361.709467,658.263003 C361.771184,661.025443 362.599956,662.070834 365.475971,662.062019 C370.309299,662.042627 375.144389,662.455142 379.97948,662.687843 M301.879664,753 L293.440297,753 C287.913975,750.431477 283.253455,746.773492 279.012611,742.375095 C269.596351,732.606953 268.485444,723.737881 275.64815,712.046431 C282.973083,700.088786 290.30507,688.134666 297.688194,676.212279 C298.871398,674.301312 299.543232,672.444994 299.444485,670.100358 C298.839658,655.593582 298.696827,641.060362 297.786941,626.572978 C297.206801,617.303731 300.105739,610.112926 306.684778,603.56381 C360.699549,549.801122 414.508008,495.830414 468.503383,442.050098 C473.111002,437.46131 477.519363,433.450748 473.537731,426.349849 C473.114529,425.595335 473.31026,424.507635 473.156849,423.585646 C467.932059,392.386117 494.599119,361.724268 526.032499,364.611872 C536.224631,365.549727 541.80209,362.196721 548.151894,355.71812 C568.700148,334.753898 588.990954,313.449439 610.727702,293.763309 C653.915538,254.650191 725.692479,273.41257 745.498365,328.146607 C747.86301,334.679857 748.548951,341.59389 751,348.053099 L751,368.675321 C749.737445,369.020846 750.079534,370.133226 749.94552,370.975885 C746.880827,390.293573 737.98299,406.503296 724.146025,420.227351 C702.95944,441.24446 681.947426,462.436094 660.773185,483.46378 C658.784132,485.441736 658.269236,487.098848 658.812346,489.947669 C665.967998,527.475953 631.131363,559.690904 594.425582,549.443257 C590.547987,548.359083 588.290906,549.050134 585.513638,551.835491 C530.354457,607.154805 475.045391,662.326038 419.893263,717.652404 C413.71803,723.84718 406.846276,726.657217 398.10714,726.124826 C385.478067,725.354446 372.785512,725.541312 360.181125,724.543519 C353.538606,724.018179 348.32087,725.832188 342.753991,729.194008 C329.262642,737.343823 316.700575,747.133121 301.879664,753" id="Fill-1" fill="#000000"></path>
        <path d="M473.046062,426.450619 C472.619821,425.690689 472.816958,424.595181 472.662445,423.666575 C467.400151,392.24309 494.258631,361.361145 525.917646,364.269477 C536.182938,365.214064 541.800433,361.836989 548.195817,355.311884 C568.89157,334.197178 589.328027,312.739792 611.220805,292.912351 C654.71865,253.518473 727.010817,272.415532 746.958873,327.542459 C749.340492,334.122605 750.031357,341.086268 752.5,347.591842 L752.5,368.362094 C751.228382,368.7101 751.572927,369.830465 751.437951,370.679172 C748.351259,390.135526 739.389552,406.461604 725.453263,420.284173 C704.114597,441.452146 682.951756,462.795897 661.625522,483.974523 C659.622192,485.966678 659.103599,487.635684 659.650608,490.504955 C666.857624,528.302623 631.770926,560.748818 594.801665,550.427612" id="Fill-1" fill="#000000"></path>
    </g>
</svg>
