<?xml version="1.0" encoding="UTF-8"?>
<svg width="1024px" height="1024px" viewBox="0 0 1024 1024" version="1.1" xmlns="http://www.w3.org/2000/svg" xmlns:xlink="http://www.w3.org/1999/xlink">
    <!-- Generator: Sketch 51.3 (57544) - http://www.bohemiancoding.com/sketch -->
    <title>Searchit</title>
    <desc>Created with Sketch.</desc>
    <defs></defs>
    <g id="Searchit" stroke="none" stroke-width="1" fill="none" fill-rule="evenodd">
        <path d="M2,511 C2,928.495059 5.94377067,1022 513,1022 C1020.05623,1022 1024,928.495059 1024,511 C1024,93.5049407 1020.05623,0 513,0 C5.94377067,0 2,93.5049407 2,511 Z" id="background" fill="#673BB8" fill-rule="nonzero"></path>
        <g id="icon" transform="translate(252.000000, 249.000000)">
            <path d="M516.012367,447.210718 L382.171694,313.370045 C391.846926,297.602908 399.372037,280.760953 404.747166,262.843765 C410.122364,244.926646 412.809894,226.113867 412.809894,206.404947 C412.809894,177.737433 407.434834,151.041223 396.684507,126.315562 C385.934181,101.231444 371.152766,79.2832361 352.339711,60.470182 C333.526657,41.657128 311.57845,26.8757129 286.494332,16.1253865 C261.76867,5.37506002 235.072461,0 206.404947,0 C177.737433,0 151.041223,5.37506002 126.315562,16.1253865 C101.231444,26.8757129 79.2832361,41.657128 60.4701958,60.470182 C41.6571555,79.2832361 26.8756992,101.231444 16.1253865,126.315562 C5.37507516,151.041223 0,177.737433 0,206.404947 C0,234.714073 5.37507516,261.410283 16.1253865,286.494332 C26.8756992,311.57845 41.6571555,333.526657 60.4701958,352.339711 C79.2832361,371.152766 101.231444,385.934181 126.315562,396.684507 C151.041223,407.434834 177.737433,412.809894 206.404947,412.809894 C226.113867,412.809894 244.926646,410.122364 262.843765,404.747166 C280.760953,399.372037 297.602908,391.846926 313.370045,382.171694 L447.210718,516.012367 C451.869209,520.670835 457.602588,523.000034 464.41113,523.000034 C471.219673,523.000034 476.953052,520.670835 481.611542,516.012367 L516.012367,481.611542 C520.670858,476.953072 523,471.219659 523,464.41113 C523,457.602602 520.670858,451.869188 516.012367,447.210718 Z M206.404947,344.008245 C187.412733,344.008245 169.495821,340.424848 152.653659,333.257987 C136.169815,326.091126 121.65714,316.236803 109.115149,303.694744 C96.5730905,291.152754 86.7187679,276.640078 79.5519066,260.156235 C72.3850452,243.314073 68.8016489,225.39716 68.8016489,206.404947 C68.8016489,187.412733 72.3850452,169.495821 79.5519066,152.653659 C86.7187679,136.169815 96.5730905,121.65714 109.115149,109.115149 C121.65714,96.5730905 136.169815,86.7187679 152.653659,79.5519066 C169.495821,72.3850452 187.412733,68.8016489 206.404947,68.8016489 C225.39716,68.8016489 243.314073,72.3850452 260.156235,79.5519066 C276.640078,86.7187679 291.152754,96.5730905 303.694744,109.115149 C316.236803,121.65714 326.091126,136.169815 333.257987,152.653659 C340.424848,169.495821 344.008245,187.412733 344.008245,206.404947 C344.008245,225.39716 340.424848,243.314073 333.257987,260.156235 C326.091126,276.640078 316.236803,291.152754 303.694744,303.694744 C291.152754,316.236803 276.640078,326.091126 260.156235,333.257987 C243.314073,340.424848 225.39716,344.008245 206.404947,344.008245 Z" id="Fill-1" fill="#FFFFFF"></path>
            <g id="Group" fill="#C5B0ED">
                <path d="M206.5,413 C320.546801,413 413,320.546801 413,206.5 C413,92.4531992 320.546801,0 206.5,0 C92.4531992,0 0,92.4531992 0,206.5 C0,320.546801 92.4531992,413 206.5,413 Z M516.012367,447.210718 L382.171694,313.370045 C391.846926,297.602908 399.372037,280.760953 404.747166,262.843765 C410.122364,244.926646 412.809894,226.113867 412.809894,206.404947 C412.809894,177.737433 407.434834,151.041223 396.684507,126.315562 C385.934181,101.231444 371.152766,79.2832361 352.339711,60.470182 C333.526657,41.657128 311.57845,26.8757129 286.494332,16.1253865 C261.76867,5.37506002 235.072461,0 206.404947,0 C177.737433,0 151.041223,5.37506002 126.315562,16.1253865 C101.231444,26.8757129 79.2832361,41.657128 60.4701958,60.470182 C41.6571555,79.2832361 26.8756992,101.231444 16.1253865,126.315562 C5.37507516,151.041223 0,177.737433 0,206.404947 C0,234.714073 5.37507516,261.410283 16.1253865,286.494332 C26.8756992,311.57845 41.6571555,333.526657 60.4701958,352.339711 C79.2832361,371.152766 101.231444,385.934181 126.315562,396.684507 C151.041223,407.434834 177.737433,412.809894 206.404947,412.809894 C226.113867,412.809894 244.926646,410.122364 262.843765,404.747166 C280.760953,399.372037 297.602908,391.846926 313.370045,382.171694 L447.210718,516.012367 C451.869209,520.670835 457.602588,523.000034 464.41113,523.000034 C471.219673,523.000034 476.953052,520.670835 481.611542,516.012367 L516.012367,481.611542 C520.670858,476.953072 523,471.219659 523,464.41113 C523,457.602602 520.670858,451.869188 516.012367,447.210718 Z" id="Path"></path>
            </g>
        </g>
    </g>
</svg>