<?xml version="1.0" encoding="UTF-8"?>
<svg width="1024px" height="1024px" viewBox="0 0 1024 1024" version="1.1" xmlns="http://www.w3.org/2000/svg" xmlns:xlink="http://www.w3.org/1999/xlink">
    <!-- Generator: Sketch 49.3 (51167) - http://www.bohemiancoding.com/sketch -->
    <title>Searchit</title>
    <desc>Created with Sketch.</desc>
    <defs></defs>
    <g id="Searchit" stroke="none" stroke-width="1" fill="none" fill-rule="evenodd">
        <g id="linkit" transform="translate(7.000000, -4.000000)" fill="#7C48C2" fill-rule="nonzero">
            <path d="M0,511 C0,928.495059 3.94377067,1022 511,1022 C1018.05623,1022 1022,928.495059 1022,511 C1022,93.5049407 1018.05623,0 511,0 C3.94377067,0 0,93.5049407 0,511 Z" id="bg"></path>
        </g>
        <g id="Group" transform="translate(271.000000, 272.000000)">
            <path d="M108.97948,390.687843 C108.983007,390.629668 108.98477,390.573256 108.988297,390.513318 C112.887052,390.703709 116.81402,390.664926 120.675745,391.151482 C123.648744,391.525213 125.609583,390.54505 127.610979,388.44898 C133.112614,382.694925 138.829377,377.143602 144.4615,371.514712 C189.624281,326.361952 234.774719,281.191563 280.004507,236.10403 C282.192818,233.921579 282.700661,232.780993 280.191422,230.355264 C270.092747,220.583596 260.226834,210.572175 250.330945,200.592486 C248.770385,199.019993 247.835812,197.944633 245.619288,200.165868 C194.342991,251.573341 142.98029,302.896197 91.6193529,354.219052 C90.3585616,355.475989 89.5438964,356.683565 89.644407,358.65447 C90.11522,367.851438 90.4996291,377.05722 90.7094671,386.263003 C90.7711842,389.025443 91.5999562,390.070834 94.4759712,390.062019 C99.3092986,390.042627 104.144389,390.455142 108.97948,390.687843 M30.8796637,481 L22.4402966,481 C16.9139747,478.431477 12.253455,474.773492 8.01261128,470.375095 C-1.40364874,460.606953 -2.51455583,451.737881 4.64814983,440.046431 C11.9730832,428.088786 19.3050699,416.134666 26.6881937,404.212279 C27.8713979,402.301312 28.5432322,400.444994 28.4444849,398.100358 C27.8396577,383.593582 27.6968268,369.060362 26.786941,354.572978 C26.2068006,345.303731 29.1057391,338.112926 35.6847777,331.56381 C89.6995487,277.801122 143.508008,223.830414 197.503383,170.050098 C202.111002,165.46131 206.519363,161.450748 202.537731,154.349849 C202.114529,153.595335 202.31026,152.507635 202.156849,151.585646 C196.932059,120.386117 223.599119,89.7242676 255.032499,92.6118724 C265.224631,93.5497269 270.80209,90.1967206 277.151894,83.7181202 C297.700148,62.7538982 317.990954,41.4494395 339.727702,21.7633087 C382.915538,-17.3498089 454.692479,1.41257041 474.498365,56.1466072 C476.86301,62.6798571 477.548951,69.5938899 480,76.0530986 L480,96.675321 C478.737445,97.0208464 479.079534,98.1332265 478.94552,98.9758853 C475.880827,118.293573 466.98299,134.503296 453.146025,148.227351 C431.95944,169.24446 410.947426,190.436094 389.773185,211.46378 C387.784132,213.441736 387.269236,215.098848 387.812346,217.947669 C394.967998,255.475953 360.131363,287.690904 323.425582,277.443257 C319.547987,276.359083 317.290906,277.050134 314.513638,279.835491 C259.354457,335.154805 204.045391,390.326038 148.893263,445.652404 C142.71803,451.84718 135.846276,454.657217 127.10714,454.124826 C114.478067,453.354446 101.785512,453.541312 89.1811254,452.543519 C82.5386064,452.018179 77.3208698,453.832188 71.7539909,457.194008 C58.2626416,465.343823 45.7005749,475.133121 30.8796637,481" id="Fill-1" fill="#FFFFFF"></path>
            <path d="M202.046062,154.450619 C201.619821,153.690689 201.816958,152.595181 201.662445,151.666575 C196.400151,120.24309 223.258631,89.3611449 254.917646,92.2694773 C265.182938,93.2140639 270.800433,89.8369893 277.195817,83.3118844 C297.89157,62.1971778 318.328027,40.7397921 340.220805,20.9123511 C383.71865,-18.4815269 456.010817,0.415531911 475.958873,55.5424586 C478.340492,62.1226051 479.031357,69.0862681 481.5,75.591842 L481.5,96.3620941 C480.228382,96.7100997 480.572927,97.8304647 480.437951,98.6791722 C477.351259,118.135526 468.389552,134.461604 454.453263,148.284173 C433.114597,169.452146 411.951756,190.795897 390.625522,211.974523 C388.622192,213.966678 388.103599,215.635684 388.650608,218.504955 C395.857624,256.302623 360.770926,288.748818 323.801665,278.427612" id="Fill-1" fill="#BC8AFF"></path>
        </g>
    </g>
</svg>
