<?xml version="1.0" encoding="UTF-8"?>
<svg width="1024px" height="1024px" viewBox="0 0 1024 1024" version="1.1" xmlns="http://www.w3.org/2000/svg" xmlns:xlink="http://www.w3.org/1999/xlink">
    <!-- Generator: Sketch 51.2 (57519) - http://www.bohemiancoding.com/sketch -->
    <title>Searchit Mask</title>
    <desc>Created with Sketch.</desc>
    <defs></defs>
    <g id="Searchit-Mask" stroke="none" stroke-width="1" fill="none" fill-rule="evenodd">
        <path d="M768.012367,696.210718 L634.171694,562.370045 C643.846926,546.602908 651.372037,529.760953 656.747166,511.843765 C662.122364,493.926646 664.809894,475.113867 664.809894,455.404947 C664.809894,426.737433 659.434834,400.041223 648.684507,375.315562 C637.934181,350.231444 623.152766,328.283236 604.339711,309.470182 C585.526657,290.657128 563.57845,275.875713 538.494332,265.125386 C513.76867,254.37506 487.072461,249 458.404947,249 C429.737433,249 403.041223,254.37506 378.315562,265.125386 C353.231444,275.875713 331.283236,290.657128 312.470196,309.470182 C293.657155,328.283236 278.875699,350.231444 268.125386,375.315562 C257.375075,400.041223 252,426.737433 252,455.404947 C252,483.714073 257.375075,510.410283 268.125386,535.494332 C278.875699,560.57845 293.657155,582.526657 312.470196,601.339711 C331.283236,620.152766 353.231444,634.934181 378.315562,645.684507 C403.041223,656.434834 429.737433,661.809894 458.404947,661.809894 C478.113867,661.809894 496.926646,659.122364 514.843765,653.747166 C532.760953,648.372037 549.602908,640.846926 565.370045,631.171694 L699.210718,765.012367 C703.869209,769.670835 709.602588,772.000034 716.41113,772.000034 C723.219673,772.000034 728.953052,769.670835 733.611542,765.012367 L768.012367,730.611542 C772.670858,725.953072 775,720.219659 775,713.41113 C775,706.602602 772.670858,700.869188 768.012367,696.210718 Z M458.404947,593.008245 C439.412733,593.008245 421.495821,589.424848 404.653659,582.257987 C388.169815,575.091126 373.65714,565.236803 361.115149,552.694744 C348.573091,540.152754 338.718768,525.640078 331.551907,509.156235 C324.385045,492.314073 320.801649,474.39716 320.801649,455.404947 C320.801649,436.412733 324.385045,418.495821 331.551907,401.653659 C338.718768,385.169815 348.573091,370.65714 361.115149,358.115149 C373.65714,345.573091 388.169815,335.718768 404.653659,328.551907 C421.495821,321.385045 439.412733,317.801649 458.404947,317.801649 C477.39716,317.801649 495.314073,321.385045 512.156235,328.551907 C528.640078,335.718768 543.152754,345.573091 555.694744,358.115149 C568.236803,370.65714 578.091126,385.169815 585.257987,401.653659 C592.424848,418.495821 596.008245,436.412733 596.008245,455.404947 C596.008245,474.39716 592.424848,492.314073 585.257987,509.156235 C578.091126,525.640078 568.236803,540.152754 555.694744,552.694744 C543.152754,565.236803 528.640078,575.091126 512.156235,582.257987 C495.314073,589.424848 477.39716,593.008245 458.404947,593.008245 Z" id="Fill-1" fill="#000000"></path>
    </g>
</svg>